<svg xmlns="http://www.w3.org/2000/svg" viewBox="0 0 100 100"><rect width="100" height="100" fill="#fbf8f1"/><rect x="1" y="1" width="98" height="98" fill="none" stroke="#1f4e9c" stroke-width="1.5" opacity=".5"/><ellipse cx="50" cy="31" rx="7" ry="15" fill="#1f4e9c" transform="rotate(0 50 50)"/><ellipse cx="50" cy="31" rx="7" ry="15" fill="#1f4e9c" transform="rotate(45 50 50)"/><ellipse cx="50" cy="31" rx="7" ry="15" fill="#1f4e9c" transform="rotate(90 50 50)"/><ellipse cx="50" cy="31" rx="7" ry="15" fill="#1f4e9c" transform="rotate(135 50 50)"/><ellipse cx="50" cy="31" rx="7" ry="15" fill="#1f4e9c" transform="rotate(180 50 50)"/><ellipse cx="50" cy="31" rx="7" ry="15" fill="#1f4e9c" transform="rotate(225 50 50)"/><ellipse cx="50" cy="31" rx="7" ry="15" fill="#1f4e9c" transform="rotate(270 50 50)"/><ellipse cx="50" cy="31" rx="7" ry="15" fill="#1f4e9c" transform="rotate(315 50 50)"/><circle cx="50" cy="50" r="10" fill="#f6b81b"/><circle cx="50" cy="50" r="4" fill="#1f4e9c"/><circle cx="0" cy="0" r="16" fill="#1f4e9c"/><circle cx="0" cy="0" r="8" fill="#fbf8f1"/><circle cx="0" cy="0" r="4" fill="#e5337f"/><circle cx="100" cy="0" r="16" fill="#1f4e9c"/><circle cx="100" cy="0" r="8" fill="#fbf8f1"/><circle cx="100" cy="0" r="4" fill="#e5337f"/><circle cx="0" cy="100" r="16" fill="#1f4e9c"/><circle cx="0" cy="100" r="8" fill="#fbf8f1"/><circle cx="0" cy="100" r="4" fill="#e5337f"/><circle cx="100" cy="100" r="16" fill="#1f4e9c"/><circle cx="100" cy="100" r="8" fill="#fbf8f1"/><circle cx="100" cy="100" r="4" fill="#e5337f"/><circle cx="50" cy="4" r="3" fill="#2a9d5c"/><circle cx="50" cy="96" r="3" fill="#2a9d5c"/><circle cx="4" cy="50" r="3" fill="#2a9d5c"/><circle cx="96" cy="50" r="3" fill="#2a9d5c"/></svg>
